<?xml version="1.0" encoding="UTF-8"?>
<svg version="1.1" xmlns="http://www.w3.org/2000/svg" width="460" height="480">
<path d="M0 0 C5.28444064 4.77410525 8.40400375 11.60722314 11.875 17.75 C12.86877294 19.4916563 13.86255597 21.23330695 14.85694885 22.97460938 C15.88691628 24.77966286 16.91444086 26.58609286 17.94189453 28.39257812 C20.57217856 33.01068863 23.23892225 37.60742078 25.90478516 42.20507812 C28.37831887 46.47725767 30.83447639 50.75932866 33.29150391 55.04101562 C34.91048615 57.84496888 36.55190147 60.63450464 38.19921875 63.421875 C39.13336964 65.03092668 40.06700199 66.64027956 41 68.25 C41.42772705 68.95833984 41.8554541 69.66667969 42.29614258 70.39648438 C44.05119924 73.46285931 44.99375509 75.67682588 45.0625 79.234375 C43.09047388 84.367443 38.03170738 86.69490172 33.421875 89.3203125 C32.35114746 89.93382568 31.28041992 90.54733887 30.17724609 91.17944336 C29.04625488 91.82147705 27.91526367 92.46351074 26.75 93.125 C17.19593822 98.5410898 17.19593822 98.5410898 7.7890625 104.20703125 C7.03141602 104.67415527 6.27376953 105.1412793 5.49316406 105.62255859 C4.12933468 106.46921432 2.77368881 107.32927249 1.42871094 108.20556641 C-3.36021241 111.15327943 -6.53891139 111.8163483 -12 111 C-14.89783754 107.86602181 -17.03587807 104.43497757 -19.14453125 100.73828125 C-19.73145752 99.71468506 -20.31838379 98.69108887 -20.9230957 97.63647461 C-21.85835083 95.99110718 -21.85835083 95.99110718 -22.8125 94.3125 C-23.81307476 92.56521663 -24.8136558 90.81793682 -25.81462097 89.07087708 C-26.85298531 87.25730744 -27.88953985 85.44271303 -28.92578125 83.62792969 C-31.57410834 78.99242651 -34.23899472 74.3665452 -36.90673828 69.7421875 C-38.17046416 67.55082272 -39.43188401 65.35812636 -40.69091797 63.1640625 C-43.45813076 58.35074913 -46.24719684 53.56033388 -49.1640625 48.8359375 C-49.63739014 48.06193604 -50.11071777 47.28793457 -50.59838867 46.49047852 C-51.45499892 45.09725699 -52.32387081 43.711454 -53.20825195 42.33569336 C-55.81537744 38.07935709 -56.75999179 34.96645796 -56 30 C-53.26752156 26.77192499 -50.24729591 24.78975347 -46.58984375 22.71484375 C-45.52612549 22.10648682 -44.46240723 21.49812988 -43.36645508 20.87133789 C-42.2348999 20.23317139 -41.10334473 19.59500488 -39.9375 18.9375 C-38.17588477 17.93836531 -36.41511905 16.93774755 -34.65452576 15.93681335 C-33.47280681 15.26506825 -32.29064644 14.59409907 -31.10804749 13.92390442 C-27.47344222 11.85886047 -23.87782684 9.73976419 -20.3046875 7.5703125 C-19.45398682 7.05863525 -18.60328613 6.54695801 -17.72680664 6.01977539 C-16.16154701 5.07498474 -14.60292938 4.11906627 -13.05249023 3.15014648 C-8.61813942 0.49951341 -5.2964362 -1.06180038 0 0 Z " fill="#F35E26" transform="translate(414,81)"/>
<path d="M0 0 C6.48406136 0.09798137 11.58233865 3.9534365 16.953125 7.234375 C18.09950486 7.91985865 19.24673238 8.60392655 20.39477539 9.28662109 C22.71730645 10.67094025 25.03365993 12.06486729 27.34619141 13.46582031 C30.4603925 15.33841774 33.59532115 17.16637674 36.74609375 18.9765625 C38.54451225 20.02041752 40.34270358 21.06466405 42.140625 22.109375 C43.38150879 22.81658691 43.38150879 22.81658691 44.64746094 23.53808594 C52.03411978 27.90364205 52.03411978 27.90364205 53.703125 32.484375 C53.24300495 36.36536996 51.95079425 39.21761664 50.03515625 42.59765625 C49.47884521 43.58596436 48.92253418 44.57427246 48.34936523 45.5925293 C47.44166382 47.17868042 47.44166382 47.17868042 46.515625 48.796875 C45.88922119 49.90264893 45.26281738 51.00842285 44.61743164 52.14770508 C38.65060545 62.65024391 32.57979607 73.09236907 26.45410156 83.50292969 C24.64175714 86.58886806 22.83985733 89.68074728 21.0390625 92.7734375 C19.86485439 94.78140853 18.69038504 96.78922683 17.515625 98.796875 C16.70436157 100.19425903 16.70436157 100.19425903 15.87670898 101.61987305 C15.37212158 102.4787915 14.86753418 103.33770996 14.34765625 104.22265625 C13.90784424 104.97587158 13.46803223 105.72908691 13.01489258 106.50512695 C10.58136795 110.17692747 10.58136795 110.17692747 8.703125 111.484375 C3.29774606 112.11394925 0.1211615 111.0671845 -4.5078125 108.3359375 C-5.07400299 108.00759918 -5.64019348 107.67926086 -6.22354126 107.3409729 C-8.04848195 106.27807066 -9.86002022 105.1944061 -11.671875 104.109375 C-12.92632993 103.37208902 -14.18154335 102.63609209 -15.4375 101.90136719 C-17.92105888 100.44564596 -20.39953718 98.98182938 -22.87402344 97.51074219 C-25.82779303 95.76207688 -28.79368655 94.03978145 -31.7734375 92.3359375 C-33.28137145 91.46896121 -34.78919521 90.60179321 -36.296875 89.734375 C-36.96509277 89.35361816 -37.63331055 88.97286133 -38.32177734 88.58056641 C-41.76723182 86.5682173 -44.90437998 84.71424328 -47.296875 81.484375 C-48.67697523 75.34752932 -44.86077907 70.31085499 -41.921875 65.171875 C-41.09876831 63.69992676 -41.09876831 63.69992676 -40.2590332 62.19824219 C-36.29305621 55.13867671 -32.21851662 48.14359 -28.07421875 41.1875 C-25.86465828 37.46770123 -23.70286058 33.72208846 -21.55078125 29.96875 C-21.2214006 29.39461365 -20.89201996 28.82047729 -20.55265808 28.22894287 C-18.91459372 25.37306032 -17.27961195 22.51552141 -15.64916992 19.65527344 C-4.77805379 0.70198894 -4.77805379 0.70198894 0 0 Z " fill="#F35E26" transform="translate(405.296875,287.515625)"/>
<path d="M0 0 C2.63337809 2.2686699 4.24455057 5.0251515 6 8 C6.53737793 8.88397461 7.07475586 9.76794922 7.62841797 10.67871094 C9.43939456 13.7219783 11.1929293 16.79321087 12.9375 19.875 C13.92247308 21.59897988 14.90745513 23.32295469 15.89295959 25.04663086 C16.91327523 26.83260958 17.93134959 28.61985263 18.94921875 30.40722656 C21.61512473 35.0836594 24.30927 39.74364462 27.00390625 44.40356445 C28.28266012 46.61668053 29.55874783 48.83133949 30.83203125 51.04760742 C33.42188606 55.55524417 36.01556424 60.05529199 38.71875 64.49609375 C39.10297119 65.13643555 39.48719238 65.77677734 39.88305664 66.43652344 C40.83683493 68.02033864 41.8061931 69.59474593 42.77734375 71.16796875 C44.33455974 74.7749387 44.56843441 77.10908848 44 81 C40.58300602 85.51839399 36.10065696 87.85217577 31.1875 90.4375 C29.59623686 91.29685607 28.00647717 92.15899998 26.41796875 93.0234375 C25.55864746 93.49104492 24.69932617 93.95865234 23.81396484 94.44042969 C17.40854821 97.99047319 11.11389428 101.73575483 4.79760742 105.44116211 C3.81252197 106.01874268 2.82743652 106.59632324 1.8125 107.19140625 C0.93207031 107.70904541 0.05164062 108.22668457 -0.85546875 108.76000977 C-4.53193534 110.88578092 -6.68511167 111.50763392 -11 111 C-16.23012298 106.78215888 -19.1029328 101.08796566 -22.375 95.3125 C-22.97932861 94.26102783 -23.58365723 93.20955566 -24.20629883 92.1262207 C-25.48888638 89.89360493 -26.76818578 87.65909742 -28.04443359 85.42285156 C-30.60873674 80.93452071 -33.1954869 76.45933917 -35.78344727 71.98461914 C-37.04905266 69.79305601 -38.31128301 67.59954024 -39.57006836 65.40405273 C-42.4557249 60.37346124 -45.36671927 55.36690495 -48.390625 50.41796875 C-48.90794189 49.56050049 -49.42525879 48.70303223 -49.95825195 47.81958008 C-50.90842145 46.24934618 -51.87205405 44.68713731 -52.85229492 43.13549805 C-55.81994478 38.19550595 -56.92633461 34.77596876 -56 29 C-52.64482304 25.8741979 -48.89627951 23.66833396 -44.9140625 21.42578125 C-44.33975494 21.10018723 -43.76544739 20.7745932 -43.17373657 20.43913269 C-41.3265164 19.39268198 -39.4760151 18.35222116 -37.625 17.3125 C-35.08965146 15.88414377 -32.55584349 14.45309789 -30.0234375 13.01953125 C-29.40702393 12.67080963 -28.79061035 12.32208801 -28.15551758 11.96279907 C-24.75581709 10.02983469 -21.40431435 8.0433497 -18.1015625 5.94921875 C-17.43044434 5.52535889 -16.75932617 5.10149902 -16.06787109 4.66479492 C-14.39526529 3.59307826 -12.73600244 2.50061245 -11.078125 1.40625 C-7.21899277 -0.35680533 -4.14289357 -1.30299419 0 0 Z " fill="#F35E26" transform="translate(56,288)"/>
<path d="M0 0 C5.0068126 1.12176954 9.35464131 4.09564845 13.73095703 6.67333984 C14.81836182 7.29958252 15.9057666 7.9258252 17.02612305 8.57104492 C19.28635452 9.87666889 21.5424281 11.18951543 23.79443359 12.50927734 C27.06344872 14.42432412 30.34466697 16.31665309 33.62939453 18.20458984 C35.62238729 19.35945128 37.6146105 20.5156421 39.60595703 21.67333984 C40.54060791 22.2130542 41.47525879 22.75276855 42.43823242 23.30883789 C43.29666748 23.81455322 44.15510254 24.32026855 45.03955078 24.84130859 C46.16768188 25.50102661 46.16768188 25.50102661 47.31860352 26.17407227 C49.16845703 27.48583984 49.16845703 27.48583984 51.16845703 30.48583984 C51.66262103 35.76326288 50.87577579 38.85389893 48.19580078 43.38037109 C47.55078613 44.48791748 46.90577148 45.59546387 46.24121094 46.73657227 C45.52968076 47.92396066 44.81792376 49.11121316 44.10595703 50.29833984 C43.37708349 51.53875359 42.64972935 52.78006128 41.92382812 54.0222168 C40.42466777 56.58364251 38.91794546 59.14037947 37.40527344 61.69384766 C34.62266429 66.39890764 31.90355999 71.13946024 29.18334961 75.88085938 C26.74743601 80.12459155 24.29603537 84.35925845 21.84326172 88.59326172 C20.75893881 90.46601068 19.67615514 92.33965205 18.59521484 94.21435547 C17.20758557 96.62006739 15.81408511 99.0222621 14.41845703 101.42333984 C14.02416504 102.10936279 13.62987305 102.79538574 13.22363281 103.50219727 C9.37483286 110.08881216 9.37483286 110.08881216 7.16845703 111.48583984 C1.88635991 111.89347561 -1.25054218 111.17484618 -5.82373047 108.55615234 C-6.93345215 107.9300708 -8.04317383 107.30398926 -9.18652344 106.65893555 C-10.36014863 105.97672764 -11.53348327 105.29401966 -12.70654297 104.61083984 C-13.91438079 103.92112784 -15.12288199 103.23257631 -16.33203125 102.54516602 C-19.84250116 100.54349229 -23.3370266 98.51522884 -26.83154297 96.48583984 C-28.62285204 95.45787271 -30.41447698 94.43045563 -32.20654297 93.40380859 C-33.7074566 92.53689889 -35.2075371 91.66854416 -36.70654297 90.79833984 C-37.37024902 90.41371582 -38.03395508 90.0290918 -38.71777344 89.6328125 C-40.44112678 88.61494135 -42.1377049 87.55210482 -43.83154297 86.48583984 C-44.80349609 85.90189453 -45.77544922 85.31794922 -46.77685547 84.71630859 C-48.83154297 82.48583984 -48.83154297 82.48583984 -49.58935547 79.04833984 C-49.14453927 72.4880574 -45.01685292 66.97174848 -41.70654297 61.48583984 C-40.97418541 60.24339962 -40.24349467 58.99997552 -39.5144043 57.75561523 C-38.02407853 55.2177252 -36.52456749 52.68565045 -35.01660156 50.15820312 C-32.39553368 45.76193979 -29.82516876 41.33664214 -27.25512695 36.91040039 C-25.54504376 33.96807611 -23.82593337 31.03119179 -22.10498047 28.09521484 C-19.92309938 24.36702727 -17.76250829 20.6277605 -15.62060547 16.87646484 C-15.11698486 15.99676025 -14.61336426 15.11705566 -14.09448242 14.21069336 C-13.15673504 12.57022736 -12.22271586 10.92762208 -11.29321289 9.2824707 C-10.87918213 8.55938721 -10.46515137 7.83630371 -10.03857422 7.09130859 C-9.68255127 6.46377686 -9.32652832 5.83624512 -8.9597168 5.18969727 C-6.51545623 1.49818147 -4.64940086 -0.22012596 0 0 Z " fill="#F35E26" transform="translate(48.83154296875,80.51416015625)"/>
<path d="M0 0 C0.86383301 -0.00540298 1.72766602 -0.01080597 2.61767578 -0.01637268 C5.47129641 -0.02887405 8.323911 -0.01236107 11.17749023 0.00561523 C13.15998894 0.00546029 15.14248796 0.00397213 17.12498474 0.00120544 C21.27860921 -0.00017913 25.43188861 0.01239055 29.58544922 0.03515625 C34.91446333 0.06355947 40.2429048 0.06079928 45.5719614 0.04806614 C49.66486011 0.04111809 53.75762599 0.04888793 57.85050774 0.06132317 C59.81573922 0.06584487 61.78098493 0.06616821 63.74621773 0.06225777 C66.48996447 0.05935365 69.23291612 0.07581336 71.9765625 0.09765625 C73.19928108 0.09090378 73.19928108 0.09090378 74.44670105 0.08401489 C79.82779673 0.1553446 79.82779673 0.1553446 82.42527771 1.66540527 C83.84314121 4.27345059 83.81966797 6.32169867 83.84350586 9.28662109 C83.86737366 11.06878273 83.86737366 11.06878273 83.89172363 12.88694763 C83.89192505 14.17134232 83.89212646 15.455737 83.89233398 16.77905273 C83.90375427 18.75609947 83.90375427 18.75609947 83.91540527 20.77308655 C83.92885191 23.56316637 83.93041831 26.35296325 83.92456055 29.14306641 C83.91866484 32.71576306 83.94924636 36.28710053 83.98967743 39.85953426 C84.02177006 43.27025082 84.01743816 46.68068556 84.01733398 50.09155273 C84.03372925 51.37392319 84.05012451 52.65629364 84.0670166 53.9775238 C84.05771118 55.16878372 84.04840576 56.36004364 84.03881836 57.58740234 C84.0408728 58.63536484 84.04292725 59.68332733 84.04504395 60.76304626 C83.42358398 63.50170898 83.42358398 63.50170898 81.40332031 65.83999634 C77.60253518 67.95958412 74.37084011 68.05670338 70.13256836 68.00341797 C68.89994011 68.01152245 68.89994011 68.01152245 67.64241028 68.01979065 C64.93368196 68.03226926 62.22601835 68.01579307 59.51733398 67.99780273 C57.63073674 67.99795774 55.74413917 67.99944703 53.85754395 68.00221252 C49.90659481 68.00359613 45.95600886 67.9910449 42.00512695 67.96826172 C36.94424888 67.93987726 31.88397417 67.94261495 26.82305145 67.95535183 C22.9282314 67.96231139 19.03355046 67.95451654 15.13874817 67.9420948 C13.27285801 67.937583 11.4069529 67.93724113 9.5410614 67.9411602 C6.93193012 67.94407514 4.32362626 67.92755224 1.71459961 67.90576172 C0.94561844 67.91026337 0.17663727 67.91476501 -0.61564636 67.91940308 C-5.09846741 67.85729122 -8.01663709 67.287363 -11.57641602 64.50170898 C-12.88215106 61.8902389 -12.72502153 59.93847316 -12.75341797 57.01391602 C-12.7662532 55.86577423 -12.77908844 54.71763245 -12.79231262 53.53469849 C-12.79969955 52.28889008 -12.80708649 51.04308167 -12.81469727 49.75952148 C-12.82276901 48.48446747 -12.83084076 47.20941345 -12.8391571 45.89572144 C-12.85300729 43.19387162 -12.86402129 40.49214424 -12.87158203 37.7902832 C-12.88264985 34.33102982 -12.91705434 30.87241912 -12.95675373 27.41339302 C-12.98919493 24.11216612 -12.99369645 20.81088351 -13.00219727 17.50952148 C-13.0284594 15.64688156 -13.0284594 15.64688156 -13.05525208 13.74661255 C-13.05232651 12.59216644 -13.04940094 11.43772034 -13.04638672 10.24829102 C-13.05225296 9.2328421 -13.0581192 8.21739319 -13.06416321 7.1711731 C-12.57641602 4.50170898 -12.57641602 4.50170898 -11.08306885 2.17390442 C-7.50317717 -0.21425179 -4.15882155 -0.04944815 0 0 Z " fill="#F35E26" transform="translate(193.576416015625,-0.501708984375)"/>
<path d="M0 0 C0.83150574 -0.0071553 1.66301147 -0.01431061 2.51971436 -0.02168274 C5.26110211 -0.03855535 8.00085116 -0.01917635 10.7421875 0.00219727 C12.6512058 0.00136843 14.56022403 -0.0010915 16.46923828 -0.00511169 C20.46734129 -0.00796871 24.46488379 0.00672207 28.46289062 0.03417969 C33.58443469 0.06826227 38.70497657 0.06224333 43.8265686 0.04351711 C47.76774428 0.03294207 51.70868726 0.04188954 55.64984131 0.05690193 C57.53805856 0.0620805 59.42630015 0.06160589 61.31451416 0.05535698 C63.95499817 0.04989867 66.59405381 0.07029881 69.234375 0.09765625 C70.01270691 0.09113037 70.79103882 0.08460449 71.59295654 0.07788086 C75.15939384 0.14062548 77.47064017 0.54908044 80.60166931 2.30152893 C83.11913058 5.21125895 83.24471951 6.62330627 83.24829102 10.43774414 C83.26082413 11.60575562 83.27335724 12.77376709 83.28627014 13.97717285 C83.27301193 15.23453247 83.25975372 16.49189209 83.24609375 17.78735352 C83.24850571 19.08177368 83.25091766 20.37619385 83.25340271 21.70983887 C83.25625834 24.44709734 83.24158515 27.18353647 83.21411133 29.9206543 C83.18002664 33.42486516 83.18604768 36.9276114 83.2047739 40.4318924 C83.2178991 43.7796912 83.19962527 47.12706492 83.18359375 50.47485352 C83.19103355 52.36089294 83.19103355 52.36089294 83.19862366 54.28503418 C83.18278732 55.45304565 83.16695099 56.62105713 83.15063477 57.82446289 C83.14443619 58.85164429 83.13823761 59.87882568 83.1318512 60.93713379 C82.6171875 63.63110352 82.6171875 63.63110352 81.11314392 65.96166992 C77.56733966 68.33329977 74.27151924 68.19029756 70.1484375 68.14868164 C69.29596436 68.15569092 68.44349121 68.1627002 67.56518555 68.16992188 C64.7488543 68.1875192 61.93352886 68.17587312 59.1171875 68.16235352 C57.15950325 68.16504793 55.2018203 68.16892993 53.24414062 68.1739502 C49.14179743 68.17984759 45.03980268 68.17127445 40.9375 68.15258789 C35.67798122 68.12979827 30.41927886 68.14292005 25.15979004 68.16687775 C21.1174504 68.18132915 17.07530445 68.17673274 13.03295898 68.16636658 C11.09366764 68.16369747 9.15435873 68.16697549 7.21508789 68.17628479 C4.504897 68.18643953 1.79602975 68.17096479 -0.9140625 68.14868164 C-2.11736206 68.16082703 -2.11736206 68.16082703 -3.3449707 68.17321777 C-6.79052471 68.12071124 -8.98701777 67.89689997 -11.87876892 65.9549408 C-13.74340404 63.07396802 -13.89518599 61.35366397 -13.91625977 57.93212891 C-13.9320961 56.78736588 -13.94793243 55.64260284 -13.96424866 54.46315002 C-13.95928879 53.23080124 -13.95432892 51.99845245 -13.94921875 50.72875977 C-13.95541733 49.45890732 -13.96161591 48.18905487 -13.96800232 46.88072205 C-13.97510837 44.1944995 -13.97385665 41.50977277 -13.95922852 38.82373047 C-13.94205011 35.38896476 -13.96552313 31.95587343 -14.00071812 28.52129459 C-14.02801698 25.23626332 -14.01795379 21.95137246 -14.01171875 18.66625977 C-14.02497696 17.43593521 -14.03823517 16.20561066 -14.05189514 14.93800354 C-14.03936203 13.79008835 -14.02682892 12.64217316 -14.01391602 11.45947266 C-14.01295425 10.45227676 -14.01199249 9.44508087 -14.01100159 8.40736389 C-12.30561189 0.87045193 -6.82264882 -0.10249069 0 0 Z " fill="#F25E26" transform="translate(194.3828125,412.368896484375)"/>
<path d="M0 0 C5.14167004 6.23435629 8.83715651 13.84087676 12.75 20.875 C13.88963533 22.9146158 15.03021726 24.95370305 16.171875 26.9921875 C16.6678418 27.88276855 17.16380859 28.77334961 17.67480469 29.69091797 C18.7141966 31.50200285 19.84170364 33.26255546 21 35 C21.47680664 38.44140625 21.47680664 38.44140625 21 42 C18.64624023 44.15234375 18.64624023 44.15234375 15.37109375 45.9375 C14.49377846 46.4315332 14.49377846 46.4315332 13.59873962 46.93554688 C12.36321947 47.62910873 11.121491 48.31171147 9.87420654 48.98388672 C8.07281115 49.96052496 6.29817663 50.97222897 4.52783203 52.00390625 C1.0524086 54.02633059 -2.44003279 56.01611609 -5.9375 58 C-7.69523827 59.00009667 -9.45261485 60.00082239 -11.20962524 61.00219727 C-12.3738735 61.66404654 -13.53953427 62.3234176 -14.70663452 62.98022461 C-17.76787467 64.70654297 -20.79237377 66.47439347 -23.78564453 68.31640625 C-24.71963829 68.88004883 -24.71963829 68.88004883 -25.67250061 69.45507812 C-27.40373805 70.50192988 -29.12517436 71.56494088 -30.84594727 72.62890625 C-34.5188809 74.22556197 -36.22645365 74.25907923 -40 73 C-41.44042969 71.59570312 -41.44042969 71.59570312 -42.421875 69.78125 C-42.80287354 69.10416992 -43.18387207 68.42708984 -43.57641602 67.72949219 C-43.96369873 66.99375977 -44.35098145 66.25802734 -44.75 65.5 C-45.60719983 63.95264101 -46.46530031 62.40578067 -47.32421875 60.859375 C-47.76040527 60.05951172 -48.1965918 59.25964844 -48.64599609 58.43554688 C-49.9927261 56.0130841 -51.39717714 53.6368115 -52.83203125 51.265625 C-53.28932617 50.50830078 -53.74662109 49.75097656 -54.21777344 48.97070312 C-55.09657127 47.51944222 -55.97859961 46.07013132 -56.86425781 44.62304688 C-61.04256525 37.62412734 -61.04256525 37.62412734 -61 34 C-58.20180714 29.11820655 -54.069172 27.06948858 -49.25 24.5625 C-47.64046731 23.69802491 -46.03247785 22.83067235 -44.42578125 21.9609375 C-43.55904785 21.49268555 -42.69231445 21.02443359 -41.79931641 20.54199219 C-35.59778586 17.12590402 -29.51697325 13.49695155 -23.41308594 9.91040039 C-18.95161686 7.29318941 -14.48646822 4.68357816 -9.984375 2.13671875 C-9.28924805 1.74315186 -8.59412109 1.34958496 -7.87792969 0.9440918 C-4.83787813 -0.58423365 -3.28960854 -1.02343377 0 0 Z " fill="#F35E26" transform="translate(173,72)"/>
<path d="M0 0 C2.87060547 1.36010742 2.87060547 1.36010742 5.8671875 3.10546875 C6.98955811 3.75314209 8.11192871 4.40081543 9.26831055 5.06811523 C10.4706808 5.77433777 11.67290759 6.48080464 12.875 7.1875 C14.11388465 7.90711448 15.35322969 8.62593692 16.59301758 9.34399414 C19.13723704 10.81974619 21.67812212 12.30100561 24.21630859 13.78710938 C27.85271172 15.91595171 31.49776031 18.02960843 35.14453125 20.140625 C39.31102057 22.55704289 43.47743902 24.97353331 47.63671875 27.40234375 C48.86974731 28.12151978 48.86974731 28.12151978 50.12768555 28.85522461 C52 30 52 30 53 31 C53.42800442 36.35703804 52.6542547 39.46018802 49.9296875 44.0546875 C49.28 45.16457031 48.6303125 46.27445312 47.9609375 47.41796875 C47.26576126 48.57039471 46.57044804 49.72273805 45.875 50.875 C45.20984375 52.00808594 44.5446875 53.14117187 43.859375 54.30859375 C41.93818232 57.55955312 39.97167157 60.77950057 38 64 C37.46536133 64.93231445 36.93072266 65.86462891 36.37988281 66.82519531 C32.81397059 72.76838235 32.81397059 72.76838235 29.1171875 73.8203125 C25.02787322 72.74417716 21.7518246 71.01871824 18.125 68.875 C16.9793457 68.21806152 16.9793457 68.21806152 15.81054688 67.54785156 C13.1991579 66.04511025 10.59977443 64.52273815 8 63 C5.94574198 61.80915466 3.89103758 60.61907907 1.8359375 59.4296875 C-3.19379284 56.51181143 -8.21999361 53.58834086 -13.2265625 50.63085938 C-15.0887708 49.53582844 -16.9587588 48.45393008 -18.8359375 47.38476562 C-19.72539063 46.87107422 -20.61484375 46.35738281 -21.53125 45.828125 C-22.32080078 45.37856445 -23.11035156 44.92900391 -23.92382812 44.46582031 C-26.20754219 42.85347092 -27.57181642 41.40031589 -29 39 C-28.0950498 31.97063939 -23.76424843 26.03842123 -20.1875 20.0625 C-19.26227539 18.49338867 -19.26227539 18.49338867 -18.31835938 16.89257812 C-16.55992758 13.91950162 -14.78413667 10.95770672 -13 8 C-12.26064209 6.7622583 -12.26064209 6.7622583 -11.50634766 5.49951172 C-7.91434211 -0.41510438 -6.82072724 -1.59191397 0 0 Z " fill="#F35E26" transform="translate(141,335)"/>
<path d="M0 0 C2.47167969 1.04711914 2.47167969 1.04711914 4.921875 2.53515625 C5.85290039 3.09025879 6.78392578 3.64536133 7.74316406 4.21728516 C8.73541992 4.82620605 9.72767578 5.43512695 10.75 6.0625 C12.88469595 7.34364956 15.02014081 8.62355192 17.15625 9.90234375 C18.26871094 10.57249512 19.38117188 11.24264648 20.52734375 11.93310547 C24.06248938 14.0493567 27.63557126 16.0953238 31.21875 18.12890625 C32.10436615 18.63282646 32.10436615 18.63282646 33.00787354 19.14692688 C35.87547189 20.77817188 38.74578762 22.40432051 41.62011719 24.02368164 C42.65813477 24.61656982 43.69615234 25.20945801 44.765625 25.8203125 C46.13895996 26.59785889 46.13895996 26.59785889 47.54003906 27.39111328 C50.16035901 29.10487951 52.13051981 30.47353754 54 33 C53.89676797 37.5448955 52.26290081 40.83351776 50.05078125 44.73828125 C49.44943359 45.80626953 48.84808594 46.87425781 48.22851562 47.97460938 C47.59623047 49.07611328 46.96394531 50.17761719 46.3125 51.3125 C45.69955078 52.40240234 45.08660156 53.49230469 44.45507812 54.61523438 C42.66956702 57.76402014 40.84432941 60.88537025 39 64 C38.21568604 65.36777588 38.21568604 65.36777588 37.41552734 66.76318359 C36.92133301 67.5773877 36.42713867 68.3915918 35.91796875 69.23046875 C35.28604614 70.29430786 35.28604614 70.29430786 34.64135742 71.37963867 C32.20239002 73.78740703 30.38437783 73.91229627 27 74 C24.12939453 72.86694336 24.12939453 72.86694336 21.1328125 71.08984375 C20.01060303 70.43588623 18.88839355 69.78192871 17.73217773 69.1081543 C16.52954485 68.38500236 15.32715753 67.66144189 14.125 66.9375 C12.88508788 66.20657407 11.64427198 65.47717926 10.40258789 64.74926758 C7.85513534 63.25304681 5.31320773 61.74801102 2.77490234 60.23632812 C-0.82275961 58.09803298 -4.44451184 56.00534006 -8.07421875 53.921875 C-10.23705623 52.67721724 -12.39982028 51.43243187 -14.5625 50.1875 C-16.077229 49.31822876 -16.077229 49.31822876 -17.62255859 48.43139648 C-19.01788818 47.62037476 -19.01788818 47.62037476 -20.44140625 46.79296875 C-21.25295166 46.3239917 -22.06449707 45.85501465 -22.90063477 45.37182617 C-26.81331482 42.81509292 -26.81331482 42.81509292 -28 41 C-27.8455686 35.63650948 -26.18628667 31.94711777 -23.5078125 27.3671875 C-22.98790237 26.46759811 -22.98790237 26.46759811 -22.45748901 25.54983521 C-21.35721496 23.65184006 -20.24147963 21.76349801 -19.125 19.875 C-18.3830774 18.6008638 -17.64218251 17.32612858 -16.90234375 16.05078125 C-14.94945006 12.69184791 -12.98059663 9.34269494 -11 6 C-10.46874512 5.06430176 -9.93749023 4.12860352 -9.39013672 3.16455078 C-6.92901825 -0.66760171 -4.30460775 -0.29883937 0 0 Z " fill="#F35E26" transform="translate(292,72)"/>
<path d="M0 0 C1.87890625 2.1328125 1.87890625 2.1328125 3.5625 5.125 C4.03417603 5.95173218 4.03417603 5.95173218 4.51538086 6.79516602 C5.24863355 8.08472652 5.97327448 9.37920428 6.69140625 10.67724609 C8.22723287 13.40333835 9.83134437 16.08429449 11.4375 18.76953125 C12.64716474 20.82473777 13.85549243 22.88073182 15.0625 24.9375 C15.6594165 25.93217285 16.25633301 26.9268457 16.87133789 27.95166016 C17.42039795 28.90476074 17.96945801 29.85786133 18.53515625 30.83984375 C19.034104 31.68925537 19.53305176 32.53866699 20.04711914 33.41381836 C21.28149064 36.7639842 21.09674291 38.61660275 20 42 C18.09594727 43.72827148 18.09594727 43.72827148 15.56640625 45.12109375 C14.61918701 45.65702148 13.67196777 46.19294922 12.69604492 46.74511719 C11.6619751 47.30360352 10.62790527 47.86208984 9.5625 48.4375 C7.38269941 49.65995462 5.20301623 50.8826186 3.0234375 52.10546875 C1.30785645 53.05365479 1.30785645 53.05365479 -0.44238281 54.02099609 C-5.86527236 57.02483139 -11.2222634 60.14342488 -16.58596802 63.25125122 C-18.29109465 64.23761763 -19.99892593 65.21930372 -21.70678711 66.20092773 C-22.74843018 66.79977783 -23.79007324 67.39862793 -24.86328125 68.015625 C-26.24447144 68.80888184 -26.24447144 68.80888184 -27.65356445 69.61816406 C-29.47062767 70.68824811 -31.24541946 71.83027964 -33 73 C-35.9375 73.375 -35.9375 73.375 -39 73 C-42.29788648 70.22024849 -44.24662362 67.1422133 -46.3125 63.38671875 C-46.91320312 62.30326172 -47.51390625 61.21980469 -48.1328125 60.10351562 C-48.74898438 58.97623047 -49.36515625 57.84894531 -50 56.6875 C-51.2290168 54.46215681 -52.45817958 52.23689423 -53.6875 50.01171875 C-54.25984375 48.96419434 -54.8321875 47.91666992 -55.421875 46.83740234 C-56.70829618 44.52447119 -58.05134756 42.27263906 -59.4375 40.01953125 C-61.07736529 36.85049158 -61.41354196 35.48044564 -61 32 C-55.85159598 25.85348605 -46.58108974 22.17439919 -39.6875 18.3125 C-37.1877471 16.90551309 -34.68942191 15.49600599 -32.19140625 14.0859375 C-31.57569763 13.73911423 -30.95998901 13.39229095 -30.32562256 13.03495789 C-26.563248 10.90856041 -22.84501035 8.72281075 -19.15234375 6.4765625 C-17.86227417 5.69865356 -17.86227417 5.69865356 -16.54614258 4.9050293 C-14.97661649 3.95369106 -13.41465566 2.98971254 -11.86206055 2.01098633 C-7.64424963 -0.5243981 -4.88015844 -1.97312881 0 0 Z " fill="#F35E26" transform="translate(325,335)"/>
<path d="M0 0 C1.9354248 -0.3742218 1.9354248 -0.3742218 4.32617188 -0.37231445 C5.66766296 -0.38165764 5.66766296 -0.38165764 7.03625488 -0.39118958 C8.48783997 -0.37737495 8.48783997 -0.37737495 9.96875 -0.36328125 C11.45562317 -0.36402901 11.45562317 -0.36402901 12.97253418 -0.36479187 C15.07073977 -0.36244874 17.16894802 -0.35270623 19.26708984 -0.33618164 C22.48690812 -0.3125959 25.70589862 -0.31561806 28.92578125 -0.32226562 C30.96094246 -0.31668894 32.99610017 -0.30957911 35.03125 -0.30078125 C35.99897339 -0.30169266 36.96669678 -0.30260406 37.96374512 -0.30354309 C38.85807251 -0.29401108 39.7523999 -0.28447906 40.67382812 -0.2746582 C41.85724792 -0.26774712 41.85724792 -0.26774712 43.0645752 -0.26069641 C45 0 45 0 47 2 C47.25396729 4.73266602 47.25396729 4.73266602 47.25878906 8.25390625 C47.26509338 9.56866943 47.27139771 10.88343262 47.27789307 12.23803711 C47.2743134 13.6795261 47.27021146 15.12101387 47.265625 16.5625 C47.26697168 18.03458724 47.26891223 19.50667405 47.27142334 20.97875977 C47.27437449 24.06563548 47.27007732 27.15239553 47.26074219 30.23925781 C47.24934756 34.20072129 47.25590709 38.16191378 47.26788712 42.12336731 C47.275106 45.16363577 47.27281768 48.20383973 47.26763153 51.24411011 C47.26629511 52.7049869 47.2679425 54.1658695 47.27259064 55.6267395 C47.27765606 57.66652315 47.26856979 59.70632726 47.25878906 61.74609375 C47.25719788 62.90810303 47.25560669 64.0701123 47.25396729 65.26733398 C47 68 47 68 45 70 C43.0645752 70.26069641 43.0645752 70.26069641 40.67382812 70.2746582 C39.33233704 70.28895622 39.33233704 70.28895622 37.96374512 70.30354309 C36.51216003 70.30217598 36.51216003 70.30217598 35.03125 70.30078125 C33.54437683 70.30720894 33.54437683 70.30720894 32.02746582 70.31376648 C29.92928838 70.31951584 27.831091 70.3200056 25.73291016 70.31567383 C22.5130027 70.31251277 19.29401257 70.3359696 16.07421875 70.36132812 C14.03906366 70.36360084 12.0039061 70.36430474 9.96875 70.36328125 C9.00102661 70.372491 8.03330322 70.38170074 7.03625488 70.39118958 C6.14192749 70.38496078 5.2476001 70.37873199 4.32617188 70.37231445 C3.53722534 70.37294388 2.74827881 70.3735733 1.9354248 70.3742218 C1.29673462 70.25072861 0.65804443 70.12723541 0 70 C-2.35206313 66.4719053 -2.25286015 65.00988772 -2.25878906 60.83203125 C-2.26509338 59.56061279 -2.27139771 58.28919434 -2.27789307 56.97924805 C-2.27431328 55.59033062 -2.27021131 54.20141446 -2.265625 52.8125 C-2.26697226 51.3890781 -2.2689133 49.96565665 -2.27142334 48.54223633 C-2.27437175 45.55968849 -2.27008612 42.57726047 -2.26074219 39.59472656 C-2.24934771 35.77127036 -2.25590871 31.94809495 -2.26788712 28.12464905 C-2.27511339 25.18556604 -2.27281427 22.24654961 -2.26763153 19.3074646 C-2.26629716 17.89765388 -2.26793535 16.48783711 -2.27259064 15.07803345 C-2.27766816 13.10801305 -2.26855731 11.13797147 -2.25878906 9.16796875 C-2.25719788 8.04672607 -2.25560669 6.9254834 -2.25396729 5.77026367 C-2 3 -2 3 0 0 Z " fill="#F35E26" transform="translate(358,205)"/>
<path d="M0 0 C1.9354248 -0.3742218 1.9354248 -0.3742218 4.32617188 -0.37231445 C5.66766296 -0.38165764 5.66766296 -0.38165764 7.03625488 -0.39118958 C8.48783997 -0.37737495 8.48783997 -0.37737495 9.96875 -0.36328125 C11.45562317 -0.36402901 11.45562317 -0.36402901 12.97253418 -0.36479187 C15.07073977 -0.36244874 17.16894802 -0.35270623 19.26708984 -0.33618164 C22.48690812 -0.3125959 25.70589862 -0.31561806 28.92578125 -0.32226562 C30.96094246 -0.31668894 32.99610017 -0.30957911 35.03125 -0.30078125 C35.99897339 -0.30169266 36.96669678 -0.30260406 37.96374512 -0.30354309 C38.85807251 -0.29401108 39.7523999 -0.28447906 40.67382812 -0.2746582 C41.85724792 -0.26774712 41.85724792 -0.26774712 43.0645752 -0.26069641 C45 0 45 0 47 2 C47.25396729 4.73266602 47.25396729 4.73266602 47.25878906 8.25390625 C47.26509338 9.56866943 47.27139771 10.88343262 47.27789307 12.23803711 C47.2743134 13.6795261 47.27021146 15.12101387 47.265625 16.5625 C47.26697168 18.03458724 47.26891223 19.50667405 47.27142334 20.97875977 C47.27437449 24.06563548 47.27007732 27.15239553 47.26074219 30.23925781 C47.24934756 34.20072129 47.25590709 38.16191378 47.26788712 42.12336731 C47.275106 45.16363577 47.27281768 48.20383973 47.26763153 51.24411011 C47.26629511 52.7049869 47.2679425 54.1658695 47.27259064 55.6267395 C47.27765606 57.66652315 47.26856979 59.70632726 47.25878906 61.74609375 C47.25719788 62.90810303 47.25560669 64.0701123 47.25396729 65.26733398 C47 68 47 68 45 70 C43.0645752 70.26069641 43.0645752 70.26069641 40.67382812 70.2746582 C39.33233704 70.28895622 39.33233704 70.28895622 37.96374512 70.30354309 C36.51216003 70.30217598 36.51216003 70.30217598 35.03125 70.30078125 C33.54437683 70.30720894 33.54437683 70.30720894 32.02746582 70.31376648 C29.92928838 70.31951584 27.831091 70.3200056 25.73291016 70.31567383 C22.5130027 70.31251277 19.29401257 70.3359696 16.07421875 70.36132812 C14.03906366 70.36360084 12.0039061 70.36430474 9.96875 70.36328125 C9.00102661 70.372491 8.03330322 70.38170074 7.03625488 70.39118958 C6.14192749 70.38496078 5.2476001 70.37873199 4.32617188 70.37231445 C3.53722534 70.37294388 2.74827881 70.3735733 1.9354248 70.3742218 C1.29673462 70.25072861 0.65804443 70.12723541 0 70 C-2.35206313 66.4719053 -2.25286015 65.00988772 -2.25878906 60.83203125 C-2.26509338 59.56061279 -2.27139771 58.28919434 -2.27789307 56.97924805 C-2.27431328 55.59033062 -2.27021131 54.20141446 -2.265625 52.8125 C-2.26697226 51.3890781 -2.2689133 49.96565665 -2.27142334 48.54223633 C-2.27437175 45.55968849 -2.27008612 42.57726047 -2.26074219 39.59472656 C-2.24934771 35.77127036 -2.25590871 31.94809495 -2.26788712 28.12464905 C-2.27511339 25.18556604 -2.27281427 22.24654961 -2.26763153 19.3074646 C-2.26629716 17.89765388 -2.26793535 16.48783711 -2.27259064 15.07803345 C-2.27766816 13.10801305 -2.26855731 11.13797147 -2.25878906 9.16796875 C-2.25719788 8.04672607 -2.25560669 6.9254834 -2.25396729 5.77026367 C-2 3 -2 3 0 0 Z " fill="#F35E26" transform="translate(55,205)"/>
<path d="M0 0 C1.44577675 0.00493217 1.44577675 0.00493217 2.92076111 0.00996399 C4.9557878 0.02037721 6.99078492 0.04031419 9.02563477 0.0690918 C12.14420852 0.11316628 15.2620127 0.13052865 18.38085938 0.14257812 C20.35808404 0.15600248 22.33529923 0.17092553 24.3125 0.1875 C25.24691422 0.19488693 26.18132843 0.20227386 27.14405823 0.20988464 C28.01183395 0.22271988 28.87960968 0.23555511 29.77368164 0.2487793 C30.53661026 0.2586235 31.29953888 0.26846771 32.08558655 0.27861023 C34.08984375 0.42578125 34.08984375 0.42578125 37.08984375 1.42578125 C39.29270226 5.83149828 38.27569322 11.81156934 38.27514648 16.71142578 C38.27733522 18.91718775 38.29550235 21.12245141 38.31445312 23.328125 C38.31738668 24.7252587 38.31937173 26.12239478 38.3203125 27.51953125 C38.32442139 28.79505859 38.32853027 30.07058594 38.33276367 31.38476562 C38.08984375 34.42578125 38.08984375 34.42578125 36.08984375 36.42578125 C34.04052734 36.68647766 34.04052734 36.68647766 31.48828125 36.70043945 C30.05669678 36.71473747 30.05669678 36.71473747 28.59619141 36.72932434 C27.56284668 36.72841293 26.52950195 36.72750153 25.46484375 36.7265625 C23.87808838 36.73299019 23.87808838 36.73299019 22.25927734 36.73954773 C20.01986406 36.74529781 17.7804321 36.74578633 15.54101562 36.74145508 C12.10384472 36.73829413 8.6675332 36.76174995 5.23046875 36.78710938 C3.05859484 36.78938209 0.88671861 36.79008599 -1.28515625 36.7890625 C-2.31850098 36.79827225 -3.3518457 36.80748199 -4.41650391 36.81697083 C-5.37089355 36.81074203 -6.3252832 36.80451324 -7.30859375 36.7980957 C-8.15083496 36.79872513 -8.99307617 36.79935455 -9.86083984 36.80000305 C-10.53711426 36.67650986 -11.21338867 36.55301666 -11.91015625 36.42578125 C-15.06840096 31.68841418 -14.28210946 26.60399584 -14.28076172 21.02905273 C-14.28513461 18.99833271 -14.32146162 16.96978858 -14.359375 14.93945312 C-14.36324219 13.65748047 -14.36710938 12.37550781 -14.37109375 11.0546875 C-14.37931152 9.8797876 -14.3875293 8.7048877 -14.39599609 7.49438477 C-13.91015625 4.42578125 -13.91015625 4.42578125 -12.50073242 2.03808594 C-8.47404242 -0.46801724 -4.6485433 -0.08728869 0 0 Z " fill="#F25E26" transform="translate(216.91015625,330.57421875)"/>
<path d="M0 0 C2.04931641 -0.3742218 2.04931641 -0.3742218 4.6015625 -0.37231445 C6.03314697 -0.38165764 6.03314697 -0.38165764 7.49365234 -0.39118958 C9.04366943 -0.37737495 9.04366943 -0.37737495 10.625 -0.36328125 C11.68283691 -0.36377975 12.74067383 -0.36427826 13.83056641 -0.36479187 C16.07000606 -0.36244845 18.3094482 -0.35270429 20.54882812 -0.33618164 C23.98591547 -0.31259665 27.42222738 -0.31561785 30.859375 -0.32226562 C33.03125465 -0.31668895 35.20313101 -0.30957914 37.375 -0.30078125 C38.40834473 -0.30169266 39.44168945 -0.30260406 40.50634766 -0.30354309 C41.93793213 -0.28924507 41.93793213 -0.28924507 43.3984375 -0.2746582 C44.24067871 -0.27005081 45.08291992 -0.26544342 45.95068359 -0.26069641 C48 0 48 0 50 2 C50.24291992 5.04101562 50.24291992 5.04101562 50.23046875 8.90625 C50.23001053 9.58675415 50.22955231 10.2672583 50.2290802 10.96838379 C50.22605852 12.40748843 50.21817466 13.84658983 50.20581055 15.28564453 C50.1875717 17.49132851 50.18530075 19.69659229 50.18554688 21.90234375 C50.14753687 32.70492626 50.14753687 32.70492626 49 35 C46.24236032 35.91921323 44.53294903 36.14023935 41.68383789 36.17700195 C40.81606216 36.18983719 39.94828644 36.20267242 39.05421448 36.21589661 C38.11980026 36.22328354 37.18538605 36.23067047 36.22265625 36.23828125 C35.25976181 36.246353 34.29686737 36.25442474 33.30479431 36.26274109 C31.2680745 36.27656939 29.23133163 36.28729715 27.19458008 36.29516602 C24.07784413 36.31241508 20.96215915 36.35631655 17.84570312 36.40039062 C15.8671953 36.41051463 13.88867846 36.41903165 11.91015625 36.42578125 C10.51157127 36.45204338 10.51157127 36.45204338 9.08473206 36.47883606 C2.73510059 36.45750677 2.73510059 36.45750677 -0.59057617 34.38769531 C-2.45813603 31.22387486 -2.48658362 29.03773472 -2.4609375 25.37109375 C-2.45707031 24.08912109 -2.45320312 22.80714844 -2.44921875 21.48632812 C-2.43681152 20.82189697 -2.4244043 20.15746582 -2.41162109 19.47290039 C-2.37505234 17.44040894 -2.37060232 15.40973965 -2.37109375 13.37695312 C-2.28090721 3.42136081 -2.28090721 3.42136081 0 0 Z " fill="#F25E26" transform="translate(205,113)"/>
<path d="M0 0 C7.14433303 0.27977808 12.28727971 3.6340766 18.3125 7.25 C19.31345703 7.82363281 20.31441406 8.39726562 21.34570312 8.98828125 C22.30025391 9.55417969 23.25480469 10.12007813 24.23828125 10.703125 C25.10493408 11.21520508 25.97158691 11.72728516 26.86450195 12.25488281 C29.46680268 14.38146857 30.32102654 15.70710085 31 19 C30.0847168 21.62451172 30.0847168 21.62451172 28.44921875 24.4296875 C27.56073242 25.98441772 27.56073242 25.98441772 26.65429688 27.57055664 C26.00525391 28.66102295 25.35621094 29.75148926 24.6875 30.875 C24.03974609 31.9880249 23.39199219 33.1010498 22.72460938 34.24780273 C21.42565976 36.4749197 20.1196011 38.69790695 18.80615234 40.91650391 C17.24500661 43.58172026 15.74148183 46.26541211 14.26953125 48.98046875 C13.5133439 50.3413254 12.75686325 51.70201915 12 53.0625 C11.67604248 53.68044434 11.35208496 54.29838867 11.01831055 54.93505859 C10.0625 56.59765625 10.0625 56.59765625 8 59 C3.13409565 59.59691175 0.34034731 58.45540263 -3.80078125 55.97265625 C-4.85974609 55.34552734 -5.91871094 54.71839844 -7.00976562 54.07226562 C-8.09966797 53.40904297 -9.18957031 52.74582031 -10.3125 52.0625 C-11.42173828 51.40314453 -12.53097656 50.74378906 -13.67382812 50.06445312 C-21.76864077 45.23135923 -21.76864077 45.23135923 -23 44 C-22.93013718 36.75422791 -19.10464572 31.41877265 -15.4375 25.375 C-14.80505371 24.3128125 -14.17260742 23.250625 -13.52099609 22.15625 C-11.6938884 19.09594984 -9.85081238 16.04600947 -8 13 C-7.28529541 11.82099121 -7.28529541 11.82099121 -6.55615234 10.61816406 C-4.396005 7.0627302 -2.21483819 3.52173029 0 0 Z " fill="#F35E26" transform="translate(320,265)"/>
<path d="M0 0 C1.82348633 1.94921875 1.82348633 1.94921875 3.33203125 4.6875 C3.89921875 5.68934326 4.46640625 6.69118652 5.05078125 7.72338867 C5.92283203 9.34531128 5.92283203 9.34531128 6.8125 11 C7.41835938 12.08966064 8.02421875 13.17932129 8.6484375 14.30200195 C9.8695757 16.49975903 11.08271772 18.70197914 12.28759766 20.90869141 C13.79875572 23.63670443 15.36304069 26.31461553 16.98046875 28.98046875 C17.62761841 30.06231445 17.62761841 30.06231445 18.2878418 31.16601562 C19.07593664 32.48030069 19.8750449 33.78806563 20.68676758 35.08789062 C22.27633176 37.81049405 23.15818745 39.33716909 22.40942383 42.47460938 C20.63193203 45.65950028 18.87257793 46.72281225 15.73046875 48.55078125 C14.67666016 49.16630859 13.62285156 49.78183594 12.53710938 50.41601562 C11.43173828 51.04185547 10.32636719 51.66769531 9.1875 52.3125 C8.09373047 52.95767578 6.99996094 53.60285156 5.87304688 54.26757812 C-3.40995557 59.61336564 -3.40995557 59.61336564 -8 59 C-9.7109375 57.0703125 -9.7109375 57.0703125 -11.375 54.125 C-11.68953125 53.57779297 -12.0040625 53.03058594 -12.328125 52.46679688 C-13.08738666 51.14363102 -13.83888941 49.8159993 -14.58496094 48.48535156 C-16.29991821 45.47322854 -18.07558433 42.49998034 -19.8515625 39.5234375 C-20.88881511 37.77139854 -21.92394807 36.01813225 -22.95782471 34.26409912 C-23.65083808 33.09102939 -24.34675037 31.91966727 -25.04559326 30.75006104 C-26.04111238 29.07929657 -27.02082365 27.39914456 -28 25.71875 C-28.86625 24.24825195 -28.86625 24.24825195 -29.75 22.74804688 C-31.06905122 19.84819521 -31.46935699 18.14009297 -31 15 C-28.578125 13.0078125 -28.578125 13.0078125 -25.25 11.125 C-24.66597412 10.78984375 -24.08194824 10.4546875 -23.48022461 10.109375 C-22.26324489 9.41161591 -21.04236973 8.72061107 -19.81787109 8.03613281 C-18.07809757 7.04451331 -16.37560328 5.98833107 -14.67578125 4.9296875 C-13.13470703 3.97449219 -13.13470703 3.97449219 -11.5625 3 C-10.63566406 2.4225 -9.70882813 1.845 -8.75390625 1.25 C-5.4857893 -0.2334006 -3.55712386 -0.4347723 0 0 Z " fill="#F35E26" transform="translate(328,156)"/>
<path d="M0 0 C1.56787109 1.56005859 1.56787109 1.56005859 2.8984375 3.7734375 C3.40213867 4.59682617 3.90583984 5.42021484 4.42480469 6.26855469 C4.94461914 7.16993164 5.46443359 8.07130859 6 9 C6.53786133 9.91942383 7.07572266 10.83884766 7.62988281 11.78613281 C9.32055612 14.71868974 10.9771836 17.66817058 12.625 20.625 C13.74209535 22.61723917 14.85928066 24.60942791 15.9765625 26.6015625 C16.49508789 27.53516602 17.01361328 28.46876953 17.54785156 29.43066406 C18.43479235 30.99995876 19.34323048 32.55765195 20.28808594 34.09277344 C22.37374898 37.48449813 23.84261467 39.98353673 23 44 C21.59375 45.484375 21.59375 45.484375 19.5 46.75 C18.69046875 47.24242187 17.8809375 47.73484375 17.046875 48.2421875 C16.04140625 48.82226562 15.0359375 49.40234375 14 50 C12.67176976 50.79409484 11.34365251 51.58837867 10.015625 52.3828125 C8.59503169 53.21573153 7.1731486 54.04645458 5.75 54.875 C5.06486328 55.28073242 4.37972656 55.68646484 3.67382812 56.10449219 C3.01318359 56.47993164 2.35253906 56.85537109 1.671875 57.2421875 C1.0850293 57.5810498 0.49818359 57.91991211 -0.10644531 58.26904297 C-2.60035035 59.23174948 -4.35025748 59.36690369 -7 59 C-8.52832031 57.50146484 -8.52832031 57.50146484 -9.828125 55.3359375 C-10.33150391 54.51319336 -10.83488281 53.69044922 -11.35351562 52.84277344 C-11.89685547 51.9046582 -12.44019531 50.96654297 -13 50 C-13.61037109 48.96649414 -14.22074219 47.93298828 -14.84960938 46.86816406 C-16.83926139 43.4665975 -18.79910089 40.04885179 -20.75 36.625 C-22.07665019 34.30383846 -23.40534865 31.98386601 -24.734375 29.6640625 C-25.31413086 28.64779785 -25.89388672 27.6315332 -26.49121094 26.58447266 C-27.59958391 24.68589074 -28.78052925 22.82920612 -30 21 C-30.41918945 18.02246094 -30.41918945 18.02246094 -30 15 C-28.02807617 13.15722656 -28.02807617 13.15722656 -25.29296875 11.640625 C-24.31392578 11.08246094 -23.33488281 10.52429688 -22.32617188 9.94921875 C-21.29041016 9.38847656 -20.25464844 8.82773437 -19.1875 8.25 C-17.16015415 7.10937873 -15.13281031 5.96875389 -13.10546875 4.828125 C-12.19949951 4.3321582 -11.29353027 3.83619141 -10.36010742 3.32519531 C-3.52871524 -0.51061691 -3.52871524 -0.51061691 0 0 Z " fill="#F35E26" transform="translate(138,265)"/>
<path d="M0 0 C7.18524432 0.0787424 12.40323674 3.82326733 18.375 7.5 C19.38433594 8.10714844 20.39367187 8.71429688 21.43359375 9.33984375 C28.77830038 13.77830038 28.77830038 13.77830038 30 15 C29.62140901 20.29208815 28.26327097 23.93056788 25.61328125 28.4921875 C25.27378952 29.08242706 24.93429779 29.67266663 24.58451843 30.28079224 C23.50433583 32.15184405 22.4084575 34.01315477 21.3125 35.875 C20.59603097 37.11532316 19.88052818 38.35620499 19.16601562 39.59765625 C17.14855772 43.08853326 15.07950809 46.54572615 13 50 C12.44489746 50.95293945 11.88979492 51.90587891 11.31787109 52.88769531 C10.81465332 53.71108398 10.31143555 54.53447266 9.79296875 55.3828125 C9.36910889 56.09066895 8.94524902 56.79852539 8.50854492 57.52783203 C7 59 7 59 4.69775391 59.41796875 C-0.44866856 58.62062257 -4.65044479 55.56750514 -9.05834961 52.92089844 C-10.81146111 51.87561943 -12.58272268 50.86745327 -14.35742188 49.859375 C-15.46279297 49.20195312 -16.56816406 48.54453125 -17.70703125 47.8671875 C-18.7225708 47.27019043 -19.73811035 46.67319336 -20.78442383 46.05810547 C-23 44 -23 44 -23.50463867 41.09448242 C-22.94876542 37.68582567 -21.99365487 35.57472982 -20.21875 32.62109375 C-19.62731201 31.62279541 -19.03587402 30.62449707 -18.42651367 29.59594727 C-17.79076416 28.55365967 -17.15501465 27.51137207 -16.5 26.4375 C-15.54347534 24.83636353 -15.54347534 24.83636353 -14.56762695 23.20288086 C-12.72520582 20.12687727 -10.86547265 17.06206318 -9 14 C-8.10787012 12.52356002 -7.21591239 11.04701599 -6.32421875 9.5703125 C-1.30026779 1.30026779 -1.30026779 1.30026779 0 0 Z " fill="#F35E26" transform="translate(131,156)"/>
</svg>
