<svg xmlns="http://www.w3.org/2000/svg" id="Camada_2" data-name="Camada 2" viewBox="0 0 976.14 240.03"><defs><style>      .cls-1 {        fill: #f35e26;        fill-rule: evenodd;      }      .cls-2 {        fill: #272727;      }    </style></defs><g id="Camada_1-2" data-name="Camada 1"><g><path class="cls-2" d="M941.68,70.87v18.86h-12.19v10.89h12.19v42.9c0,9.26,1.46,16.25,5.53,20.48,3.42,3.9,8.78,6.01,15.44,6.01,5.53,0,9.91-.81,12.68-1.95l-.65-10.73c-1.79.49-4.55.98-8.29.98-7.96,0-10.73-5.53-10.73-15.28v-42.42h20.48v-10.89h-20.48v-22.59l-13.98,3.74ZM917.14,154.74c-4.06,1.78-9.43,3.9-17.55,3.9-15.6,0-27.31-11.21-27.31-29.42,0-16.41,9.75-29.74,27.79-29.74,7.8,0,13.16,1.79,16.58,3.74l3.25-11.05c-3.9-1.95-11.38-4.06-19.83-4.06-25.68,0-42.26,17.55-42.26,41.77s15.44,40.14,39.17,40.14c10.56,0,18.85-2.6,22.59-4.55l-2.44-10.73ZM826.61,141.89c0,1.46-.32,3.09-.81,4.55-2.28,6.67-8.78,13.17-19.02,13.17-7.31,0-13.49-4.39-13.49-13.65,0-15.28,17.71-18.04,33.32-17.71v13.65ZM841.73,168.39c-.97-5.36-1.3-12.03-1.3-18.85v-29.42c0-15.76-5.85-32.18-29.91-32.18-9.91,0-19.34,2.77-25.84,6.99l3.25,9.43c5.53-3.58,13.16-5.85,20.48-5.85,16.09,0,17.88,11.7,17.88,18.2v1.63c-30.39-.16-47.3,10.24-47.3,29.25,0,11.38,8.13,22.59,24.06,22.59,11.21,0,19.67-5.53,24.05-11.7h.49l1.14,9.91h13ZM734.63,70.87v18.86h-12.19v10.89h12.19v42.9c0,9.26,1.46,16.25,5.53,20.48,3.41,3.9,8.78,6.01,15.44,6.01,5.53,0,9.91-.81,12.68-1.95l-.65-10.73c-1.79.49-4.55.98-8.29.98-7.97,0-10.73-5.53-10.73-15.28v-42.42h20.48v-10.89h-20.48v-22.59l-13.98,3.74ZM641.82,168.39h14.3v-47.29c0-2.44.32-4.88.97-6.66,2.44-7.96,9.75-14.63,19.18-14.63,13.49,0,18.2,10.56,18.2,23.24v45.34h14.3v-46.97c0-26.98-16.9-33.48-27.79-33.48-13,0-22.11,7.32-26,14.79h-.33l-.81-13h-12.68c.49,6.5.65,13.16.65,21.29v57.37ZM585.59,98.66c16.9,0,23.57,16.9,23.57,30.23,0,17.71-10.24,30.56-23.89,30.56s-23.89-13-23.89-30.23c0-14.95,7.31-30.55,24.21-30.55ZM585.92,87.94c-21.78,0-39.01,15.44-39.01,41.77,0,24.87,16.42,40.47,37.71,40.47,19.02,0,39.17-12.68,39.17-41.77,0-24.05-15.28-40.47-37.87-40.47ZM534.23,153.6c-5.69,2.76-14.47,4.55-23.08,4.55-26.65,0-42.09-17.23-42.09-44.05,0-28.77,17.06-45.18,42.74-45.18,9.1,0,16.74,1.95,22.1,4.55l3.42-11.54c-3.74-1.95-12.35-4.88-26.01-4.88-33.97,0-57.21,23.24-57.21,57.53s23.24,55.42,54.12,55.42c13.33,0,23.73-2.6,28.93-5.2l-2.93-11.21ZM369.92,168.39h14.3v-47.29c0-2.44.33-4.88.98-6.66,2.44-7.96,9.75-14.63,19.18-14.63,13.49,0,18.2,10.56,18.2,23.24v45.34h14.3v-46.97c0-26.98-16.9-33.48-27.79-33.48-13,0-22.11,7.32-26,14.79h-.33l-.81-13h-12.68c.49,6.5.65,13.16.65,21.29v57.37ZM296.62,121.42c1.14-9.91,7.48-23.24,21.94-23.24,16.09,0,19.99,14.14,19.83,23.24h-41.77ZM351.72,131.66c.16-1.46.49-3.74.49-6.66,0-14.46-6.83-37.06-32.5-37.06-22.92,0-36.89,18.69-36.89,42.42s14.46,39.66,38.68,39.66c12.52,0,21.13-2.6,26.17-4.88l-2.44-10.24c-5.36,2.28-11.54,4.07-21.78,4.07-14.3,0-26.66-7.96-26.98-27.31h55.26Z"></path><path class="cls-1" d="M50.96,105.11v29.81c0,1.44-1.18,2.62-2.62,2.62h-19.05c-1.44,0-2.63-1.18-2.62-2.62v-29.81c0-1.44,1.18-2.62,2.62-2.62h19.05c1.44,0,2.62,1.18,2.62,2.62M29.2,145.82l20.34,35.24c.98,1.71.4,3.91-1.31,4.89l-22.52,13c-1.7.98-3.91.4-4.89-1.31L.48,162.4c-.98-1.71-.4-3.91,1.31-4.89l22.52-13c1.71-.98,3.91-.39,4.89,1.31ZM208.35,42.39l20.34,35.24c.98,1.71.39,3.91-1.31,4.89l-22.52,13c-1.71.98-3.91.39-4.89-1.31l-20.35-35.24c-.98-1.71-.4-3.91,1.31-4.89l22.52-13c1.71-.98,3.91-.39,4.89,1.31ZM94.24,206.86h40.69c1.97,0,3.58,1.61,3.58,3.58v26c0,1.97-1.61,3.58-3.58,3.58h-40.69c-1.97,0-3.58-1.61-3.58-3.58v-26c0-1.97,1.61-3.58,3.58-3.58ZM94.24,0h40.69c1.97,0,3.58,1.61,3.58,3.58v26c0,1.97-1.61,3.58-3.58,3.58h-40.69c-1.97,0-3.58-1.61-3.58-3.58V3.58c0-1.97,1.61-3.58,3.58-3.58ZM179.63,181.05l20.35-35.24c.98-1.71,3.19-2.3,4.89-1.31l22.52,13c1.71.99,2.3,3.19,1.31,4.89l-20.34,35.24c-.99,1.71-3.19,2.29-4.89,1.31l-22.52-13c-1.71-.99-2.3-3.19-1.31-4.89ZM202.51,105.11v29.81c0,1.44-1.18,2.62-2.62,2.62h-19.05c-1.44,0-2.62-1.18-2.63-2.62v-29.81c0-1.44,1.18-2.62,2.63-2.62h19.05c1.44,0,2.62,1.18,2.62,2.62ZM69.86,167.66l25.81,14.9c1.25.72,1.68,2.33.96,3.58l-9.52,16.5c-.72,1.25-2.33,1.68-3.58.96l-25.81-14.9c-1.25-.72-1.68-2.33-.96-3.58l9.52-16.5c.72-1.25,2.33-1.68,3.58-.96ZM145.64,36.42l25.81,14.9c1.25.72,1.68,2.33.96,3.58l-9.52,16.5c-.72,1.25-2.34,1.68-3.58.96l-25.81-14.9c-1.25-.72-1.68-2.33-.96-3.59l9.52-16.49c.72-1.25,2.33-1.68,3.58-.96ZM133.49,182.56l25.81-14.9c1.25-.72,2.86-.29,3.58.96l9.52,16.5c.72,1.25.29,2.86-.96,3.58l-25.81,14.9c-1.25.72-2.86.29-3.58-.96l-9.52-16.5c-.72-1.25-.29-2.86.96-3.58ZM57.72,51.33l25.81-14.9c1.25-.72,2.86-.29,3.58.96l9.52,16.5c.72,1.25.29,2.86-.96,3.59l-25.81,14.9c-1.25.72-2.86.29-3.58-.96l-9.52-16.5c-.72-1.25-.29-2.86.96-3.58ZM69.46,133.65l10.75,18.62c.52.9.21,2.07-.69,2.59l-11.9,6.87c-.9.52-2.07.21-2.59-.69l-10.75-18.62c-.52-.9-.21-2.07.69-2.58l11.9-6.87c.9-.52,2.07-.21,2.59.69ZM164.14,78.99l10.75,18.62c.52.9.21,2.07-.69,2.59l-11.9,6.87c-.9.52-2.07.21-2.59-.69l-10.75-18.62c-.52-.9-.21-2.07.69-2.59l11.9-6.87c.9-.52,2.06-.21,2.58.69ZM103.83,165.91h21.5c1.04,0,1.89.85,1.89,1.89v13.74c0,1.04-.85,1.89-1.89,1.89h-21.5c-1.04,0-1.89-.85-1.89-1.89v-13.74c0-1.04.85-1.89,1.89-1.89ZM103.83,56.58h21.5c1.04,0,1.89.85,1.89,1.89v13.74c0,1.04-.85,1.89-1.89,1.89h-21.5c-1.04,0-1.89-.85-1.89-1.89v-13.74c0-1.04.85-1.89,1.89-1.89ZM148.96,152.27l10.75-18.62c.52-.9,1.68-1.22,2.59-.7l11.9,6.87c.9.52,1.21,1.69.69,2.59l-10.75,18.62c-.52.9-1.68,1.21-2.58.69l-11.9-6.87c-.9-.52-1.21-1.68-.69-2.59ZM54.28,97.61l10.75-18.62c.52-.9,1.68-1.21,2.58-.69l11.9,6.87c.9.52,1.21,1.68.69,2.59l-10.75,18.62c-.52.9-1.68,1.21-2.59.69l-11.9-6.87c-.9-.52-1.21-1.68-.69-2.59ZM.48,77.62l20.34-35.24c.99-1.71,3.19-2.3,4.89-1.31l22.52,13c1.71.98,2.29,3.18,1.31,4.89l-20.34,35.24c-.98,1.71-3.19,2.3-4.89,1.31L1.79,82.52c-1.71-.98-2.3-3.18-1.31-4.89Z"></path></g></g></svg>